<?xml version="1.0" encoding="utf-8"?>
<!-- Generator: Adobe Illustrator 25.2.3, SVG Export Plug-In . SVG Version: 6.00 Build 0)  -->
<svg version="1.1" id="Layer_1" xmlns="http://www.w3.org/2000/svg" xmlns:xlink="http://www.w3.org/1999/xlink" x="0px" y="0px"
	 viewBox="0 0 512 512" style="enable-background:new 0 0 512 512;" xml:space="preserve">
<style type="text/css">
	.st0{fill:#C1E0FF;}
</style>
<path class="st0" d="M143.2,348.6h-41c-5.7,0-10.3-4.6-10.3-10.3c0-5.7,4.6-10.3,10.3-10.3h41c5.7,0,10.3,4.6,10.3,10.3
	C153.4,344.1,148.9,348.6,143.2,348.6z"/>
<path class="st0" d="M476.4,348.6h-25.7c-5.7,0-10.3-4.6-10.3-10.3c0-5.7,4.6-10.3,10.3-10.3h17.1l13.8-73.6
	c-0.2-37.7-32.4-69.9-72-69.9h-67.3l-32.6,143.6h58.9c5.7,0,10.3,4.6,10.3,10.3c0,5.7-4.6,10.3-10.3,10.3H297c-3.1,0-6.1-1.4-8-3.8
	s-2.7-5.6-2-8.7l37.3-164.1c1.1-4.7,5.2-8,10-8h75.6c50.9,0,92.3,41.4,92.3,92.3l-15.6,83.9C485.7,345.1,481.4,348.6,476.4,348.6z"
	/>
<path class="st0" d="M409.8,389.6c-28.3,0-51.2-23-51.2-51.2c0-28.3,23-51.2,51.2-51.2s51.2,23,51.2,51.2
	C461.1,366.6,438.1,389.6,409.8,389.6z M409.8,307.6c-16.9,0-30.8,13.8-30.8,30.8c0,16.9,13.8,30.8,30.8,30.8s30.8-13.8,30.8-30.8
	C440.6,321.4,426.7,307.6,409.8,307.6z"/>
<path class="st0" d="M184.2,389.6c-28.3,0-51.2-23-51.2-51.2c0-28.3,23-51.2,51.2-51.2s51.2,23,51.2,51.2
	C235.5,366.6,212.5,389.6,184.2,389.6z M184.2,307.6c-16.9,0-30.8,13.8-30.8,30.8c0,16.9,13.8,30.8,30.8,30.8s30.8-13.8,30.8-30.8
	S201.2,307.6,184.2,307.6z"/>
<path class="st0" d="M143.2,164H61.1c-5.7,0-10.3-4.6-10.3-10.3s4.6-10.2,10.3-10.2h82c5.7,0,10.3,4.6,10.3,10.3
	S148.9,164,143.2,164z"/>
<path class="st0" d="M143.2,225.5H40.7c-5.7,0-10.3-4.6-10.3-10.3S35,205,40.7,205h102.6c5.7,0,10.3,4.6,10.3,10.3
	C153.5,221,148.9,225.5,143.2,225.5z"/>
<path class="st0" d="M143.2,287h-123c-5.7,0-10.3-4.6-10.3-10.3s4.6-10.2,10.3-10.2h123.1c5.7,0,10.3,4.6,10.3,10.3
	S148.9,287,143.2,287z"/>
<path class="st0" d="M297,348.6h-71.8c-5.7,0-10.3-4.6-10.3-10.3c0-5.7,4.6-10.3,10.3-10.3h63.6l46.6-205.1H102.2
	c-5.7,0-10.3-4.6-10.3-10.3s4.6-10.3,10.3-10.3h246.1c3.1,0,6.1,1.4,8,3.8s2.7,5.6,2,8.7L307,340.6C306,345.3,301.8,348.6,297,348.6
	L297,348.6z"/>
</svg>
