<svg width="2054" height="1453" viewBox="0 0 2054 1453" fill="none" xmlns="http://www.w3.org/2000/svg">
<path d="M1586.93 727.312C1586.93 647.986 1487.63 572.81 1335.39 526.191C1370.52 370.957 1354.91 247.453 1286.11 207.912C1270.25 198.637 1251.71 194.244 1231.46 194.244V248.674C1242.68 248.674 1251.71 250.87 1259.27 255.02C1292.45 274.058 1306.85 346.549 1295.62 439.787C1292.94 462.731 1288.55 486.894 1283.18 511.546C1235.36 499.831 1183.15 490.8 1128.26 484.942C1095.32 439.787 1061.17 398.782 1026.77 362.902C1106.3 288.947 1180.96 248.43 1231.7 248.43V194C1164.61 194 1076.78 241.839 987.975 324.826C899.169 242.328 811.34 194.976 744.247 194.976V249.406C794.749 249.406 869.649 289.679 949.184 363.146C915.028 399.026 880.872 439.787 848.423 484.942C793.286 490.8 741.076 499.83 693.257 511.79C687.646 487.382 683.498 463.707 680.571 441.008C669.104 347.77 683.254 275.278 716.19 255.996C723.51 251.603 733.025 249.65 744.247 249.65V195.22C723.754 195.22 705.212 199.614 689.11 208.889C620.553 248.43 605.183 371.689 640.559 526.435C488.809 573.298 390 648.23 390 727.312C390 806.637 489.297 881.814 641.535 928.433C606.403 1083.67 622.017 1207.17 690.817 1246.71C706.676 1255.99 725.217 1260.38 745.711 1260.38C812.803 1260.38 900.633 1212.54 989.439 1129.55C1078.24 1212.05 1166.07 1259.4 1233.17 1259.4C1253.66 1259.4 1272.2 1255.01 1288.3 1245.73C1356.86 1206.19 1372.23 1082.93 1336.86 928.188C1488.12 881.569 1586.93 806.393 1586.93 727.312V727.312ZM1269.27 564.511C1260.25 595.997 1249.03 628.46 1236.34 660.922C1226.34 641.396 1215.84 621.87 1204.38 602.344C1193.16 582.817 1181.2 563.779 1169.25 545.229C1203.89 550.355 1237.31 556.701 1269.27 564.511ZM1157.54 824.455C1138.51 857.406 1118.99 888.648 1098.74 917.693C1062.39 920.866 1025.55 922.575 988.463 922.575C951.623 922.575 914.784 920.866 878.676 917.937C858.426 888.892 838.664 857.894 819.635 825.187C801.093 793.213 784.259 760.751 768.888 728.044C784.015 695.337 801.093 662.631 819.391 630.657C838.42 597.706 857.938 566.464 878.188 537.419C914.54 534.246 951.379 532.537 988.463 532.537C1025.3 532.537 1062.14 534.246 1098.25 537.175C1118.5 566.22 1138.26 597.218 1157.29 629.924C1175.83 661.899 1192.67 694.361 1208.04 727.068C1192.67 759.774 1175.83 792.481 1157.54 824.455ZM1236.34 792.725C1249.51 825.431 1260.74 858.138 1270.01 889.868C1238.05 897.679 1204.38 904.269 1169.49 909.394C1181.44 890.6 1193.4 871.318 1204.62 851.548C1215.85 832.021 1226.34 812.251 1236.34 792.725ZM988.951 1053.16C966.262 1029.73 943.572 1003.61 921.127 975.052C943.084 976.028 965.53 976.76 988.219 976.76C1011.15 976.76 1033.84 976.272 1056.04 975.052C1034.09 1003.61 1011.4 1029.73 988.951 1053.16ZM807.436 909.394C772.792 904.269 739.368 897.923 707.407 890.112C716.434 858.626 727.657 826.164 740.344 793.701C750.347 813.227 760.837 832.754 772.304 852.28C783.771 871.806 795.481 890.844 807.436 909.394ZM987.731 401.467C1010.42 424.898 1033.11 451.015 1055.56 479.572C1033.6 478.596 1011.15 477.863 988.463 477.863C965.53 477.863 942.84 478.352 920.639 479.572C942.596 451.015 965.286 424.898 987.731 401.467ZM807.192 545.229C795.237 564.023 783.283 583.305 772.06 603.076C760.837 622.602 750.347 642.128 740.344 661.655C727.169 628.948 715.947 596.242 706.676 564.511C738.636 556.945 772.304 550.355 807.192 545.229ZM586.397 850.816C500.031 813.96 444.162 765.632 444.162 727.312C444.162 688.991 500.031 640.42 586.397 603.808C607.379 594.777 630.312 586.722 653.978 579.156C667.884 626.995 686.182 676.788 708.871 727.8C686.426 778.568 668.372 828.116 654.71 875.712C630.556 868.145 607.623 859.846 586.397 850.816ZM717.654 1199.6C684.474 1180.57 670.08 1108.07 681.303 1014.84C683.986 991.893 688.378 967.729 693.745 943.077C741.564 954.793 793.774 963.824 848.667 969.682C881.604 1014.84 915.76 1055.84 950.16 1091.72C870.625 1165.68 795.969 1206.19 745.223 1206.19C734.244 1205.95 724.973 1203.75 717.654 1199.6V1199.6ZM1296.36 1013.62C1307.82 1106.85 1293.67 1179.35 1260.74 1198.63C1253.42 1203.02 1243.9 1204.97 1232.68 1204.97C1182.18 1204.97 1107.28 1164.7 1027.74 1091.23C1061.9 1055.35 1096.05 1014.59 1128.5 969.438C1183.64 963.58 1235.85 954.549 1283.67 942.589C1289.28 967.241 1293.67 990.917 1296.36 1013.62V1013.62ZM1390.28 850.816C1369.3 859.846 1346.37 867.901 1322.7 875.468C1308.8 827.628 1290.5 777.836 1267.81 726.824C1290.26 676.055 1308.31 626.507 1321.97 578.912C1346.13 586.478 1369.06 594.777 1390.53 603.808C1476.89 640.664 1532.76 688.991 1532.76 727.312C1532.52 765.632 1476.65 814.204 1390.28 850.816V850.816Z" fill="#0078F0"/>
<mask id="path-2-outside-1" maskUnits="userSpaceOnUse" x="849" y="619" width="294" height="215" fill="black">
<rect fill="white" x="849" y="619" width="294" height="215"/>
<path d="M855.608 831.441C854.345 831.441 853.304 831.031 852.486 830.212C851.668 829.392 851.26 828.349 851.26 827.082V748.514C851.26 747.248 851.668 746.205 852.486 745.385C853.304 744.565 854.345 744.156 855.608 744.156H875.68C882.073 744.156 887.908 745.236 893.186 747.397C898.539 749.483 903.148 752.5 907.013 756.449C910.879 760.324 913.852 764.906 915.934 770.196C918.09 775.486 919.168 781.335 919.168 787.742C919.168 794.15 918.09 800.036 915.934 805.401C913.852 810.691 910.879 815.31 907.013 819.259C903.148 823.134 898.539 826.151 893.186 828.312C887.908 830.398 882.073 831.441 875.68 831.441H855.608ZM859.957 823.618H875.68C882.519 823.618 888.54 822.09 893.744 819.036C899.022 815.906 903.148 811.659 906.121 806.295C909.095 800.856 910.582 794.672 910.582 787.742C910.582 780.813 909.095 774.666 906.121 769.302C903.148 763.863 899.022 759.616 893.744 756.561C888.54 753.506 882.519 751.979 875.68 751.979H859.957V823.618Z"/>
<path d="M962.826 832C957.102 832 951.973 830.659 947.438 827.977C942.904 825.22 939.298 821.494 936.622 816.8C934.02 812.106 932.719 806.816 932.719 800.93C932.719 794.97 934.057 789.642 936.733 784.948C939.484 780.254 943.201 776.566 947.884 773.884C952.568 771.127 957.846 769.749 963.718 769.749C969.591 769.749 974.832 771.127 979.441 773.884C984.124 776.566 987.804 780.254 990.48 784.948C993.231 789.642 994.643 794.97 994.717 800.93L991.261 803.613C991.261 808.977 989.997 813.82 987.469 818.142C985.016 822.389 981.634 825.779 977.322 828.312C973.085 830.771 968.253 832 962.826 832ZM963.718 824.177C968.03 824.177 971.858 823.171 975.204 821.159C978.623 819.147 981.299 816.391 983.232 812.889C985.239 809.312 986.243 805.326 986.243 800.93C986.243 796.46 985.239 792.474 983.232 788.972C981.299 785.47 978.623 782.713 975.204 780.702C971.858 778.615 968.03 777.572 963.718 777.572C959.481 777.572 955.653 778.615 952.233 780.702C948.813 782.713 946.1 785.47 944.093 788.972C942.086 792.474 941.082 796.46 941.082 800.93C941.082 805.326 942.086 809.312 944.093 812.889C946.1 816.391 948.813 819.147 952.233 821.159C955.653 823.171 959.481 824.177 963.718 824.177ZM990.369 831.441C989.105 831.441 988.064 831.069 987.246 830.324C986.429 829.504 986.02 828.461 986.02 827.194V808.083L988.138 799.254L994.717 800.93V827.194C994.717 828.461 994.309 829.504 993.491 830.324C992.673 831.069 991.632 831.441 990.369 831.441Z"/>
<path d="M1032.71 832C1028.33 832 1023.98 831.255 1019.67 829.765C1015.36 828.275 1011.86 826.039 1009.19 823.059C1008.37 822.165 1008.03 821.159 1008.18 820.042C1008.33 818.924 1008.89 817.955 1009.86 817.136C1010.9 816.391 1011.97 816.093 1013.09 816.242C1014.2 816.391 1015.13 816.875 1015.88 817.695C1017.66 819.781 1020 821.383 1022.9 822.5C1025.88 823.618 1029.15 824.177 1032.71 824.177C1038.22 824.177 1042.19 823.245 1044.65 821.383C1047.1 819.445 1048.36 817.136 1048.44 814.453C1048.44 811.771 1047.17 809.573 1044.65 807.86C1042.12 806.071 1037.96 804.693 1032.16 803.724C1024.65 802.532 1019.15 800.446 1015.65 797.466C1012.16 794.485 1010.41 790.946 1010.41 786.848C1010.41 783.049 1011.42 779.882 1013.42 777.349C1015.43 774.815 1018.11 772.915 1021.45 771.649C1024.8 770.382 1028.48 769.749 1032.49 769.749C1037.47 769.749 1041.75 770.606 1045.31 772.319C1048.96 774.033 1051.89 776.343 1054.12 779.249C1054.87 780.217 1055.16 781.223 1055.02 782.266C1054.87 783.309 1054.27 784.166 1053.23 784.837C1052.34 785.358 1051.3 785.545 1050.11 785.395C1048.99 785.172 1048.03 784.613 1047.21 783.719C1045.35 781.558 1043.2 779.994 1040.74 779.025C1038.29 777.982 1035.46 777.46 1032.27 777.46C1028.18 777.46 1024.91 778.317 1022.46 780.031C1020 781.67 1018.78 783.756 1018.78 786.29C1018.78 788.003 1019.22 789.493 1020.11 790.76C1021.08 792.027 1022.68 793.144 1024.91 794.113C1027.21 795.081 1030.41 795.901 1034.5 796.572C1040.07 797.466 1044.46 798.807 1047.66 800.595C1050.93 802.309 1053.23 804.358 1054.57 806.742C1055.98 809.052 1056.69 811.585 1056.69 814.342C1056.69 817.844 1055.65 820.936 1053.57 823.618C1051.56 826.226 1048.73 828.275 1045.09 829.765C1041.52 831.255 1037.4 832 1032.71 832Z"/>
<path d="M1123.82 831.441C1122.56 831.441 1121.52 831.031 1120.7 830.212C1119.88 829.392 1119.47 828.386 1119.47 827.194V798.136C1119.47 793.517 1118.58 789.717 1116.8 786.737C1115.09 783.756 1112.71 781.521 1109.66 780.031C1106.69 778.541 1103.31 777.796 1099.51 777.796C1095.87 777.796 1092.56 778.504 1089.59 779.919C1086.69 781.335 1084.39 783.272 1082.68 785.731C1080.97 788.19 1080.11 790.984 1080.11 794.113H1073.98C1074.13 789.419 1075.39 785.246 1077.77 781.596C1080.15 777.87 1083.31 774.964 1087.25 772.878C1091.19 770.718 1095.57 769.637 1100.41 769.637C1105.68 769.637 1110.4 770.755 1114.57 772.99C1118.73 775.151 1122 778.355 1124.38 782.601C1126.83 786.848 1128.06 792.027 1128.06 798.136V827.194C1128.06 828.386 1127.65 829.392 1126.83 830.212C1126.02 831.031 1125.01 831.441 1123.82 831.441ZM1075.87 831.441C1074.54 831.441 1073.46 831.069 1072.64 830.324C1071.9 829.504 1071.53 828.461 1071.53 827.194V774.666C1071.53 773.325 1071.9 772.282 1072.64 771.537C1073.46 770.718 1074.54 770.308 1075.87 770.308C1077.14 770.308 1078.14 770.718 1078.89 771.537C1079.7 772.282 1080.11 773.325 1080.11 774.666V827.194C1080.11 828.461 1079.7 829.504 1078.89 830.324C1078.14 831.069 1077.14 831.441 1075.87 831.441ZM1075.87 806.518C1074.54 806.518 1073.46 806.109 1072.64 805.289C1071.9 804.469 1071.53 803.426 1071.53 802.16V748.514C1071.53 747.173 1071.9 746.13 1072.64 745.385C1073.46 744.565 1074.54 744.156 1075.87 744.156C1077.14 744.156 1078.14 744.565 1078.89 745.385C1079.7 746.13 1080.11 747.173 1080.11 748.514V802.16C1080.11 803.426 1079.7 804.469 1078.89 805.289C1078.14 806.109 1077.14 806.518 1075.87 806.518Z"/>
<path d="M855.277 706.855C854.034 706.855 853.011 706.452 852.206 705.646C851.402 704.839 851 703.813 851 702.567V625.287C851 624.041 851.402 623.015 852.206 622.209C853.011 621.403 854.034 621 855.277 621H875.02C881.308 621 887.048 622.063 892.239 624.188C897.504 626.24 902.038 629.208 905.84 633.092C909.642 636.903 912.567 641.41 914.614 646.614C916.735 651.817 917.795 657.57 917.795 663.872C917.795 670.175 916.735 675.965 914.614 681.241C912.567 686.445 909.642 690.988 905.84 694.872C902.038 698.683 897.504 701.651 892.239 703.777C887.048 705.829 881.308 706.855 875.02 706.855H855.277ZM859.555 699.16H875.02C881.747 699.16 887.669 697.657 892.788 694.653C897.979 691.575 902.038 687.397 904.962 682.121C907.887 676.771 909.349 670.688 909.349 663.872C909.349 657.057 907.887 651.011 904.962 645.734C902.038 640.384 897.979 636.207 892.788 633.202C887.669 630.197 881.747 628.695 875.02 628.695H859.555V699.16Z"/>
<path d="M960.738 707.404C955.108 707.404 950.062 706.085 945.602 703.447C941.142 700.735 937.595 697.071 934.963 692.454C932.404 687.837 931.124 682.634 931.124 676.844C931.124 670.981 932.44 665.741 935.073 661.124C937.778 656.507 941.434 652.879 946.041 650.241C950.647 647.53 955.839 646.174 961.615 646.174C967.392 646.174 972.547 647.53 977.08 650.241C981.686 652.879 985.306 656.507 987.938 661.124C990.644 665.741 992.033 670.981 992.106 676.844L988.706 679.482C988.706 684.759 987.463 689.523 984.977 693.773C982.564 697.95 979.237 701.285 974.996 703.777C970.828 706.195 966.075 707.404 960.738 707.404ZM961.615 699.709C965.856 699.709 969.622 698.72 972.912 696.741C976.276 694.763 978.908 692.051 980.809 688.606C982.783 685.089 983.77 681.168 983.77 676.844C983.77 672.447 982.783 668.526 980.809 665.082C978.908 661.637 976.276 658.926 972.912 656.947C969.622 654.895 965.856 653.869 961.615 653.869C957.447 653.869 953.682 654.895 950.318 656.947C946.955 658.926 944.286 661.637 942.312 665.082C940.337 668.526 939.35 672.447 939.35 676.844C939.35 681.168 940.337 685.089 942.312 688.606C944.286 692.051 946.955 694.763 950.318 696.741C953.682 698.72 957.447 699.709 961.615 699.709ZM987.829 706.855C986.586 706.855 985.562 706.488 984.758 705.755C983.953 704.949 983.551 703.923 983.551 702.677V683.88L985.635 675.195L992.106 676.844V702.677C992.106 703.923 991.704 704.949 990.9 705.755C990.095 706.488 989.072 706.855 987.829 706.855Z"/>
<path d="M1014.56 706.855C1013.25 706.855 1012.19 706.488 1011.38 705.755C1010.65 704.949 1010.29 703.887 1010.29 702.567V651.011C1010.29 649.692 1010.65 648.666 1011.38 647.933C1012.19 647.127 1013.25 646.723 1014.56 646.723C1015.81 646.723 1016.79 647.127 1017.53 647.933C1018.33 648.666 1018.73 649.692 1018.73 651.011V702.567C1018.73 703.887 1018.33 704.949 1017.53 705.755C1016.79 706.488 1015.81 706.855 1014.56 706.855ZM1014.45 635.291C1012.85 635.291 1011.46 634.705 1010.29 633.532C1009.12 632.359 1008.53 630.93 1008.53 629.245C1008.53 627.413 1009.12 625.983 1010.29 624.957C1011.53 623.858 1012.96 623.309 1014.56 623.309C1016.1 623.309 1017.45 623.858 1018.62 624.957C1019.86 625.983 1020.49 627.413 1020.49 629.245C1020.49 630.93 1019.9 632.359 1018.73 633.532C1017.56 634.705 1016.14 635.291 1014.45 635.291Z"/>
<path d="M1043.75 669.809C1043.96 665.265 1045.13 661.197 1047.26 657.606C1049.45 654.015 1052.26 651.194 1055.7 649.142C1059.21 647.09 1063.09 646.064 1067.33 646.064C1070.69 646.064 1073.29 646.54 1075.11 647.493C1076.94 648.446 1077.64 649.838 1077.2 651.67C1076.91 652.77 1076.39 653.502 1075.66 653.869C1075 654.235 1074.16 654.382 1073.14 654.309C1072.19 654.235 1071.09 654.162 1069.85 654.089C1065.75 653.722 1062.1 654.162 1058.88 655.408C1055.74 656.58 1053.21 658.413 1051.31 660.904C1049.49 663.396 1048.57 666.364 1048.57 669.809H1043.75ZM1044.4 706.855C1043.09 706.855 1042.06 706.488 1041.33 705.755C1040.6 705.023 1040.24 703.997 1040.24 702.677V650.901C1040.24 649.582 1040.6 648.556 1041.33 647.823C1042.06 647.09 1043.09 646.723 1044.4 646.723C1045.72 646.723 1046.74 647.09 1047.47 647.823C1048.21 648.556 1048.57 649.582 1048.57 650.901V702.677C1048.57 703.997 1048.21 705.023 1047.47 705.755C1046.74 706.488 1045.72 706.855 1044.4 706.855Z"/>
<path d="M1100.78 733.018C1100.19 733.018 1099.54 732.871 1098.81 732.578C1096.32 731.479 1095.62 729.72 1096.72 727.302L1132.15 649.032C1133.24 646.687 1135 646.027 1137.41 647.053C1139.9 648.079 1140.59 649.801 1139.5 652.22L1103.96 730.49C1103.23 732.175 1102.17 733.018 1100.78 733.018ZM1112.95 704.986C1111.86 705.499 1110.83 705.609 1109.88 705.316C1108.93 704.949 1108.16 704.216 1107.58 703.117L1083.12 652.33C1082.61 651.231 1082.54 650.205 1082.9 649.252C1083.27 648.299 1084 647.566 1085.1 647.053C1086.19 646.54 1087.22 646.467 1088.17 646.833C1089.12 647.127 1089.85 647.823 1090.36 648.922L1114.38 699.709C1114.96 700.809 1115.15 701.835 1114.93 702.787C1114.71 703.74 1114.05 704.473 1112.95 704.986Z"/>
</mask>
<path d="M855.608 831.441C854.345 831.441 853.304 831.031 852.486 830.212C851.668 829.392 851.26 828.349 851.26 827.082V748.514C851.26 747.248 851.668 746.205 852.486 745.385C853.304 744.565 854.345 744.156 855.608 744.156H875.68C882.073 744.156 887.908 745.236 893.186 747.397C898.539 749.483 903.148 752.5 907.013 756.449C910.879 760.324 913.852 764.906 915.934 770.196C918.09 775.486 919.168 781.335 919.168 787.742C919.168 794.15 918.09 800.036 915.934 805.401C913.852 810.691 910.879 815.31 907.013 819.259C903.148 823.134 898.539 826.151 893.186 828.312C887.908 830.398 882.073 831.441 875.68 831.441H855.608ZM859.957 823.618H875.68C882.519 823.618 888.54 822.09 893.744 819.036C899.022 815.906 903.148 811.659 906.121 806.295C909.095 800.856 910.582 794.672 910.582 787.742C910.582 780.813 909.095 774.666 906.121 769.302C903.148 763.863 899.022 759.616 893.744 756.561C888.54 753.506 882.519 751.979 875.68 751.979H859.957V823.618Z" fill="#0078F0"/>
<path d="M962.826 832C957.102 832 951.973 830.659 947.438 827.977C942.904 825.22 939.298 821.494 936.622 816.8C934.02 812.106 932.719 806.816 932.719 800.93C932.719 794.97 934.057 789.642 936.733 784.948C939.484 780.254 943.201 776.566 947.884 773.884C952.568 771.127 957.846 769.749 963.718 769.749C969.591 769.749 974.832 771.127 979.441 773.884C984.124 776.566 987.804 780.254 990.48 784.948C993.231 789.642 994.643 794.97 994.717 800.93L991.261 803.613C991.261 808.977 989.997 813.82 987.469 818.142C985.016 822.389 981.634 825.779 977.322 828.312C973.085 830.771 968.253 832 962.826 832ZM963.718 824.177C968.03 824.177 971.858 823.171 975.204 821.159C978.623 819.147 981.299 816.391 983.232 812.889C985.239 809.312 986.243 805.326 986.243 800.93C986.243 796.46 985.239 792.474 983.232 788.972C981.299 785.47 978.623 782.713 975.204 780.702C971.858 778.615 968.03 777.572 963.718 777.572C959.481 777.572 955.653 778.615 952.233 780.702C948.813 782.713 946.1 785.47 944.093 788.972C942.086 792.474 941.082 796.46 941.082 800.93C941.082 805.326 942.086 809.312 944.093 812.889C946.1 816.391 948.813 819.147 952.233 821.159C955.653 823.171 959.481 824.177 963.718 824.177ZM990.369 831.441C989.105 831.441 988.064 831.069 987.246 830.324C986.429 829.504 986.02 828.461 986.02 827.194V808.083L988.138 799.254L994.717 800.93V827.194C994.717 828.461 994.309 829.504 993.491 830.324C992.673 831.069 991.632 831.441 990.369 831.441Z" fill="#0078F0"/>
<path d="M1032.71 832C1028.33 832 1023.98 831.255 1019.67 829.765C1015.36 828.275 1011.86 826.039 1009.19 823.059C1008.37 822.165 1008.03 821.159 1008.18 820.042C1008.33 818.924 1008.89 817.955 1009.86 817.136C1010.9 816.391 1011.97 816.093 1013.09 816.242C1014.2 816.391 1015.13 816.875 1015.88 817.695C1017.66 819.781 1020 821.383 1022.9 822.5C1025.88 823.618 1029.15 824.177 1032.71 824.177C1038.22 824.177 1042.19 823.245 1044.65 821.383C1047.1 819.445 1048.36 817.136 1048.44 814.453C1048.44 811.771 1047.17 809.573 1044.65 807.86C1042.12 806.071 1037.96 804.693 1032.16 803.724C1024.65 802.532 1019.15 800.446 1015.65 797.466C1012.16 794.485 1010.41 790.946 1010.41 786.848C1010.41 783.049 1011.42 779.882 1013.42 777.349C1015.43 774.815 1018.11 772.915 1021.45 771.649C1024.8 770.382 1028.48 769.749 1032.49 769.749C1037.47 769.749 1041.75 770.606 1045.31 772.319C1048.96 774.033 1051.89 776.343 1054.12 779.249C1054.87 780.217 1055.16 781.223 1055.02 782.266C1054.87 783.309 1054.27 784.166 1053.23 784.837C1052.34 785.358 1051.3 785.545 1050.11 785.395C1048.99 785.172 1048.03 784.613 1047.21 783.719C1045.35 781.558 1043.2 779.994 1040.74 779.025C1038.29 777.982 1035.46 777.46 1032.27 777.46C1028.18 777.46 1024.91 778.317 1022.46 780.031C1020 781.67 1018.78 783.756 1018.78 786.29C1018.78 788.003 1019.22 789.493 1020.11 790.76C1021.08 792.027 1022.68 793.144 1024.91 794.113C1027.21 795.081 1030.41 795.901 1034.5 796.572C1040.07 797.466 1044.46 798.807 1047.66 800.595C1050.93 802.309 1053.23 804.358 1054.57 806.742C1055.98 809.052 1056.69 811.585 1056.69 814.342C1056.69 817.844 1055.65 820.936 1053.57 823.618C1051.56 826.226 1048.73 828.275 1045.09 829.765C1041.52 831.255 1037.4 832 1032.71 832Z" fill="#0078F0"/>
<path d="M1123.82 831.441C1122.56 831.441 1121.52 831.031 1120.7 830.212C1119.88 829.392 1119.47 828.386 1119.47 827.194V798.136C1119.47 793.517 1118.58 789.717 1116.8 786.737C1115.09 783.756 1112.71 781.521 1109.66 780.031C1106.69 778.541 1103.31 777.796 1099.51 777.796C1095.87 777.796 1092.56 778.504 1089.59 779.919C1086.69 781.335 1084.39 783.272 1082.68 785.731C1080.97 788.19 1080.11 790.984 1080.11 794.113H1073.98C1074.13 789.419 1075.39 785.246 1077.77 781.596C1080.15 777.87 1083.31 774.964 1087.25 772.878C1091.19 770.718 1095.57 769.637 1100.41 769.637C1105.68 769.637 1110.4 770.755 1114.57 772.99C1118.73 775.151 1122 778.355 1124.38 782.601C1126.83 786.848 1128.06 792.027 1128.06 798.136V827.194C1128.06 828.386 1127.65 829.392 1126.83 830.212C1126.02 831.031 1125.01 831.441 1123.82 831.441ZM1075.87 831.441C1074.54 831.441 1073.46 831.069 1072.64 830.324C1071.9 829.504 1071.53 828.461 1071.53 827.194V774.666C1071.53 773.325 1071.9 772.282 1072.64 771.537C1073.46 770.718 1074.54 770.308 1075.87 770.308C1077.14 770.308 1078.14 770.718 1078.89 771.537C1079.7 772.282 1080.11 773.325 1080.11 774.666V827.194C1080.11 828.461 1079.7 829.504 1078.89 830.324C1078.14 831.069 1077.14 831.441 1075.87 831.441ZM1075.87 806.518C1074.54 806.518 1073.46 806.109 1072.64 805.289C1071.9 804.469 1071.53 803.426 1071.53 802.16V748.514C1071.53 747.173 1071.9 746.13 1072.64 745.385C1073.46 744.565 1074.54 744.156 1075.87 744.156C1077.14 744.156 1078.14 744.565 1078.89 745.385C1079.7 746.13 1080.11 747.173 1080.11 748.514V802.16C1080.11 803.426 1079.7 804.469 1078.89 805.289C1078.14 806.109 1077.14 806.518 1075.87 806.518Z" fill="#0078F0"/>
<path d="M855.277 706.855C854.034 706.855 853.011 706.452 852.206 705.646C851.402 704.839 851 703.813 851 702.567V625.287C851 624.041 851.402 623.015 852.206 622.209C853.011 621.403 854.034 621 855.277 621H875.02C881.308 621 887.048 622.063 892.239 624.188C897.504 626.24 902.038 629.208 905.84 633.092C909.642 636.903 912.567 641.41 914.614 646.614C916.735 651.817 917.795 657.57 917.795 663.872C917.795 670.175 916.735 675.965 914.614 681.241C912.567 686.445 909.642 690.988 905.84 694.872C902.038 698.683 897.504 701.651 892.239 703.777C887.048 705.829 881.308 706.855 875.02 706.855H855.277ZM859.555 699.16H875.02C881.747 699.16 887.669 697.657 892.788 694.653C897.979 691.575 902.038 687.397 904.962 682.121C907.887 676.771 909.349 670.688 909.349 663.872C909.349 657.057 907.887 651.011 904.962 645.734C902.038 640.384 897.979 636.207 892.788 633.202C887.669 630.197 881.747 628.695 875.02 628.695H859.555V699.16Z" fill="#0078F0"/>
<path d="M960.738 707.404C955.108 707.404 950.062 706.085 945.602 703.447C941.142 700.735 937.595 697.071 934.963 692.454C932.404 687.837 931.124 682.634 931.124 676.844C931.124 670.981 932.44 665.741 935.073 661.124C937.778 656.507 941.434 652.879 946.041 650.241C950.647 647.53 955.839 646.174 961.615 646.174C967.392 646.174 972.547 647.53 977.08 650.241C981.686 652.879 985.306 656.507 987.938 661.124C990.644 665.741 992.033 670.981 992.106 676.844L988.706 679.482C988.706 684.759 987.463 689.523 984.977 693.773C982.564 697.95 979.237 701.285 974.996 703.777C970.828 706.195 966.075 707.404 960.738 707.404ZM961.615 699.709C965.856 699.709 969.622 698.72 972.912 696.741C976.276 694.763 978.908 692.051 980.809 688.606C982.783 685.089 983.77 681.168 983.77 676.844C983.77 672.447 982.783 668.526 980.809 665.082C978.908 661.637 976.276 658.926 972.912 656.947C969.622 654.895 965.856 653.869 961.615 653.869C957.447 653.869 953.682 654.895 950.318 656.947C946.955 658.926 944.286 661.637 942.312 665.082C940.337 668.526 939.35 672.447 939.35 676.844C939.35 681.168 940.337 685.089 942.312 688.606C944.286 692.051 946.955 694.763 950.318 696.741C953.682 698.72 957.447 699.709 961.615 699.709ZM987.829 706.855C986.586 706.855 985.562 706.488 984.758 705.755C983.953 704.949 983.551 703.923 983.551 702.677V683.88L985.635 675.195L992.106 676.844V702.677C992.106 703.923 991.704 704.949 990.9 705.755C990.095 706.488 989.072 706.855 987.829 706.855Z" fill="#0078F0"/>
<path d="M1014.56 706.855C1013.25 706.855 1012.19 706.488 1011.38 705.755C1010.65 704.949 1010.29 703.887 1010.29 702.567V651.011C1010.29 649.692 1010.65 648.666 1011.38 647.933C1012.19 647.127 1013.25 646.723 1014.56 646.723C1015.81 646.723 1016.79 647.127 1017.53 647.933C1018.33 648.666 1018.73 649.692 1018.73 651.011V702.567C1018.73 703.887 1018.33 704.949 1017.53 705.755C1016.79 706.488 1015.81 706.855 1014.56 706.855ZM1014.45 635.291C1012.85 635.291 1011.46 634.705 1010.29 633.532C1009.12 632.359 1008.53 630.93 1008.53 629.245C1008.53 627.413 1009.12 625.983 1010.29 624.957C1011.53 623.858 1012.96 623.309 1014.56 623.309C1016.1 623.309 1017.45 623.858 1018.62 624.957C1019.86 625.983 1020.49 627.413 1020.49 629.245C1020.49 630.93 1019.9 632.359 1018.73 633.532C1017.56 634.705 1016.14 635.291 1014.45 635.291Z" fill="#0078F0"/>
<path d="M1043.75 669.809C1043.96 665.265 1045.13 661.197 1047.26 657.606C1049.45 654.015 1052.26 651.194 1055.7 649.142C1059.21 647.09 1063.09 646.064 1067.33 646.064C1070.69 646.064 1073.29 646.54 1075.11 647.493C1076.94 648.446 1077.64 649.838 1077.2 651.67C1076.91 652.77 1076.39 653.502 1075.66 653.869C1075 654.235 1074.16 654.382 1073.14 654.309C1072.19 654.235 1071.09 654.162 1069.85 654.089C1065.75 653.722 1062.1 654.162 1058.88 655.408C1055.74 656.58 1053.21 658.413 1051.31 660.904C1049.49 663.396 1048.57 666.364 1048.57 669.809H1043.75ZM1044.4 706.855C1043.09 706.855 1042.06 706.488 1041.33 705.755C1040.6 705.023 1040.24 703.997 1040.24 702.677V650.901C1040.24 649.582 1040.6 648.556 1041.33 647.823C1042.06 647.09 1043.09 646.723 1044.4 646.723C1045.72 646.723 1046.74 647.09 1047.47 647.823C1048.21 648.556 1048.57 649.582 1048.57 650.901V702.677C1048.57 703.997 1048.21 705.023 1047.47 705.755C1046.74 706.488 1045.72 706.855 1044.4 706.855Z" fill="#0078F0"/>
<path d="M1100.78 733.018C1100.19 733.018 1099.54 732.871 1098.81 732.578C1096.32 731.479 1095.62 729.72 1096.72 727.302L1132.15 649.032C1133.24 646.687 1135 646.027 1137.41 647.053C1139.9 648.079 1140.59 649.801 1139.5 652.22L1103.96 730.49C1103.23 732.175 1102.17 733.018 1100.78 733.018ZM1112.95 704.986C1111.86 705.499 1110.83 705.609 1109.88 705.316C1108.93 704.949 1108.16 704.216 1107.58 703.117L1083.12 652.33C1082.61 651.231 1082.54 650.205 1082.9 649.252C1083.27 648.299 1084 647.566 1085.1 647.053C1086.19 646.54 1087.22 646.467 1088.17 646.833C1089.12 647.127 1089.85 647.823 1090.36 648.922L1114.38 699.709C1114.96 700.809 1115.15 701.835 1114.93 702.787C1114.71 703.74 1114.05 704.473 1112.95 704.986Z" fill="#0078F0"/>
<path d="M852.486 830.212L853.902 828.799L853.902 828.799L852.486 830.212ZM852.486 745.385L853.902 746.798L853.902 746.798L852.486 745.385ZM893.186 747.397L892.429 749.248L892.444 749.254L892.46 749.26L893.186 747.397ZM907.013 756.449L905.584 757.848L905.591 757.855L905.597 757.862L907.013 756.449ZM915.934 770.196L914.073 770.928L914.077 770.94L914.082 770.951L915.934 770.196ZM915.934 805.401L914.078 804.655L914.075 804.662L914.073 804.668L915.934 805.401ZM907.013 819.259L908.429 820.672L908.436 820.665L908.442 820.658L907.013 819.259ZM893.186 828.312L893.922 830.172L893.928 830.169L893.935 830.166L893.186 828.312ZM859.957 823.618H857.957V825.618H859.957V823.618ZM893.744 819.036L894.756 820.76L894.764 820.756L893.744 819.036ZM906.121 806.295L907.871 807.264L907.876 807.254L906.121 806.295ZM906.121 769.302L904.366 770.261L904.372 770.271L906.121 769.302ZM893.744 756.561L892.731 758.286L892.742 758.292L893.744 756.561ZM859.957 751.979V749.979H857.957V751.979H859.957ZM947.438 827.977L946.399 829.686L946.41 829.692L946.42 829.698L947.438 827.977ZM936.622 816.8L934.873 817.77L934.879 817.781L934.885 817.791L936.622 816.8ZM936.733 784.948L935.008 783.937L935.002 783.948L934.996 783.958L936.733 784.948ZM947.884 773.884L948.878 775.62L948.889 775.614L948.899 775.608L947.884 773.884ZM979.441 773.884L978.414 775.6L978.43 775.61L978.447 775.62L979.441 773.884ZM990.48 784.948L988.743 785.939L988.749 785.949L988.755 785.96L990.48 784.948ZM994.717 800.93H996.717V800.918L996.717 800.905L994.717 800.93ZM991.261 803.613L990.035 802.032L989.261 802.633V803.613H991.261ZM987.469 818.142L985.743 817.132L985.738 817.141L987.469 818.142ZM977.322 828.312L978.326 830.042L978.335 830.036L977.322 828.312ZM975.204 821.159L974.189 819.435L974.181 819.44L974.173 819.445L975.204 821.159ZM983.232 812.889L981.488 811.91L981.485 811.916L981.481 811.922L983.232 812.889ZM983.232 788.972L981.481 789.938L981.489 789.952L981.497 789.966L983.232 788.972ZM975.204 780.702L974.145 782.399L974.167 782.412L974.189 782.425L975.204 780.702ZM952.233 780.702L953.247 782.425L953.261 782.417L953.275 782.409L952.233 780.702ZM944.093 788.972L942.358 787.977L942.358 787.977L944.093 788.972ZM944.093 812.889L942.349 813.868L942.353 813.876L942.358 813.883L944.093 812.889ZM952.233 821.159L953.247 819.435L953.247 819.435L952.233 821.159ZM987.246 830.324L985.831 831.736L985.864 831.77L985.899 831.802L987.246 830.324ZM986.02 808.083L984.075 807.616L984.02 807.846V808.083H986.02ZM988.138 799.254L988.632 797.316L986.667 796.815L986.194 798.787L988.138 799.254ZM993.491 830.324L994.838 831.802L994.873 831.77L994.907 831.736L993.491 830.324ZM1019.67 829.765L1019.01 831.655L1019.01 831.655L1019.67 829.765ZM1009.19 823.059L1010.67 821.723L1010.67 821.716L1010.66 821.709L1009.19 823.059ZM1008.18 820.042L1010.17 820.305L1010.17 820.305L1008.18 820.042ZM1009.86 817.136L1008.69 815.51L1008.62 815.557L1008.56 815.61L1009.86 817.136ZM1015.88 817.695L1017.4 816.395L1017.38 816.372L1017.36 816.351L1015.88 817.695ZM1022.9 822.5L1022.18 824.366L1022.19 824.369L1022.2 824.372L1022.9 822.5ZM1044.65 821.383L1045.86 822.976L1045.87 822.964L1045.89 822.952L1044.65 821.383ZM1048.44 814.453L1050.44 814.509L1050.44 814.481V814.453H1048.44ZM1044.65 807.86L1043.49 809.492L1043.51 809.504L1043.52 809.515L1044.65 807.86ZM1032.16 803.724L1032.49 801.752L1032.48 801.75L1032.47 801.749L1032.16 803.724ZM1015.65 797.466L1016.95 795.944L1016.95 795.944L1015.65 797.466ZM1013.42 777.349L1011.86 776.107L1011.86 776.107L1013.42 777.349ZM1045.31 772.319L1044.45 774.122L1044.46 774.126L1044.46 774.129L1045.31 772.319ZM1054.12 779.249L1052.54 780.466L1052.54 780.466L1054.12 779.249ZM1055.02 782.266L1057 782.548L1057 782.548L1055.02 782.266ZM1053.23 784.837L1054.24 786.563L1054.28 786.541L1054.32 786.518L1053.23 784.837ZM1050.11 785.395L1049.72 787.356L1049.79 787.371L1049.86 787.38L1050.11 785.395ZM1047.21 783.719L1045.69 785.023L1045.71 785.046L1045.73 785.069L1047.21 783.719ZM1040.74 779.025L1039.96 780.866L1039.98 780.876L1040.01 780.885L1040.74 779.025ZM1022.46 780.031L1023.57 781.694L1023.58 781.682L1023.6 781.671L1022.46 780.031ZM1020.11 790.76L1018.48 791.912L1018.5 791.943L1018.52 791.973L1020.11 790.76ZM1024.91 794.113L1024.11 795.947L1024.12 795.952L1024.13 795.957L1024.91 794.113ZM1034.5 796.572L1034.17 798.545L1034.18 798.546L1034.5 796.572ZM1047.66 800.595L1046.68 802.34L1046.7 802.354L1046.73 802.367L1047.66 800.595ZM1054.57 806.742L1052.83 807.721L1052.84 807.753L1052.86 807.785L1054.57 806.742ZM1053.57 823.618L1051.99 822.392L1051.98 822.398L1053.57 823.618ZM1045.09 829.765L1044.33 827.914L1044.33 827.916L1044.32 827.919L1045.09 829.765ZM1120.7 830.212L1119.28 831.624L1119.28 831.624L1120.7 830.212ZM1116.8 786.737L1115.06 787.732L1115.07 787.748L1115.08 787.764L1116.8 786.737ZM1109.66 780.031L1108.77 781.819L1108.77 781.823L1108.78 781.828L1109.66 780.031ZM1089.59 779.919L1088.73 778.113L1088.72 778.118L1088.71 778.122L1089.59 779.919ZM1082.68 785.731L1084.32 786.873L1084.32 786.873L1082.68 785.731ZM1080.11 794.113V796.113H1082.11V794.113H1080.11ZM1073.98 794.113L1071.98 794.05L1071.91 796.113H1073.98V794.113ZM1077.77 781.596L1079.45 782.687L1079.45 782.68L1079.46 782.672L1077.77 781.596ZM1087.25 772.878L1088.18 774.646L1088.2 774.639L1088.21 774.632L1087.25 772.878ZM1114.57 772.99L1113.62 774.752L1113.63 774.759L1113.65 774.765L1114.57 772.99ZM1124.38 782.601L1122.64 783.579L1122.64 783.59L1122.65 783.602L1124.38 782.601ZM1072.64 830.324L1071.16 831.667L1071.22 831.738L1071.29 831.802L1072.64 830.324ZM1072.64 771.537L1074.06 772.95L1074.06 772.95L1072.64 771.537ZM1078.89 771.537L1077.4 772.881L1077.47 772.951L1077.54 773.015L1078.89 771.537ZM1078.89 830.324L1077.47 828.911L1077.47 828.911L1078.89 830.324ZM1072.64 805.289L1071.16 806.633L1071.19 806.668L1071.23 806.702L1072.64 805.289ZM1072.64 745.385L1071.23 743.972L1071.23 743.972L1072.64 745.385ZM1078.89 745.385L1077.4 746.729L1077.47 746.799L1077.54 746.863L1078.89 745.385ZM1078.89 805.289L1077.47 803.876L1077.44 803.91L1077.4 803.945L1078.89 805.289ZM852.206 705.646L853.622 704.233L853.622 704.233L852.206 705.646ZM852.206 622.209L853.622 623.622L853.622 623.622L852.206 622.209ZM892.239 624.188L891.482 626.039L891.497 626.045L891.513 626.051L892.239 624.188ZM905.84 633.092L904.411 634.491L904.417 634.498L904.424 634.505L905.84 633.092ZM914.614 646.614L912.753 647.346L912.757 647.357L912.762 647.368L914.614 646.614ZM914.614 681.241L912.758 680.495L912.756 680.502L912.753 680.509L914.614 681.241ZM905.84 694.872L907.256 696.285L907.262 696.278L907.269 696.272L905.84 694.872ZM892.239 703.777L892.975 705.637L892.981 705.634L892.988 705.631L892.239 703.777ZM859.555 699.16H857.555V701.16H859.555V699.16ZM892.788 694.653L893.8 696.377L893.808 696.373L892.788 694.653ZM904.962 682.121L906.712 683.09L906.717 683.08L904.962 682.121ZM904.962 645.734L903.207 646.693L903.213 646.704L904.962 645.734ZM892.788 633.202L891.775 634.927L891.786 634.933L892.788 633.202ZM859.555 628.695V626.695H857.555V628.695H859.555ZM945.602 703.447L944.563 705.156L944.573 705.162L944.584 705.168L945.602 703.447ZM934.963 692.454L933.214 693.424L933.22 693.434L933.226 693.445L934.963 692.454ZM935.073 661.124L933.347 660.113L933.341 660.123L933.335 660.134L935.073 661.124ZM946.041 650.241L947.035 651.977L947.045 651.971L947.055 651.965L946.041 650.241ZM977.08 650.241L976.053 651.958L976.07 651.967L976.086 651.977L977.08 650.241ZM987.938 661.124L986.201 662.115L986.207 662.125L986.213 662.135L987.938 661.124ZM992.106 676.844H994.106V676.832L994.106 676.819L992.106 676.844ZM988.706 679.482L987.48 677.902L986.706 678.503V679.482H988.706ZM984.977 693.773L983.25 692.763L983.245 692.773L984.977 693.773ZM974.996 703.777L976 705.507L976.009 705.501L974.996 703.777ZM972.912 696.741L971.898 695.017L971.89 695.022L971.881 695.027L972.912 696.741ZM980.809 688.606L979.065 687.628L979.061 687.634L979.058 687.64L980.809 688.606ZM980.809 665.082L979.058 666.048L979.066 666.062L979.074 666.076L980.809 665.082ZM972.912 656.947L971.854 658.644L971.876 658.658L971.898 658.671L972.912 656.947ZM950.318 656.947L951.332 658.671L951.346 658.663L951.36 658.654L950.318 656.947ZM942.312 665.082L940.576 664.087L940.576 664.087L942.312 665.082ZM942.312 688.606L940.567 689.585L940.572 689.593L940.576 689.601L942.312 688.606ZM950.318 696.741L951.332 695.017L951.332 695.017L950.318 696.741ZM984.758 705.755L983.342 707.168L983.375 707.202L983.41 707.234L984.758 705.755ZM983.551 683.88L981.606 683.413L981.551 683.643V683.88H983.551ZM985.635 675.195L986.129 673.257L984.163 672.756L983.69 674.728L985.635 675.195ZM990.9 705.755L992.247 707.234L992.282 707.202L992.315 707.168L990.9 705.755ZM1011.38 705.755L1009.9 707.099L1009.97 707.17L1010.04 707.234L1011.38 705.755ZM1011.38 647.933L1012.8 649.345L1012.8 649.345L1011.38 647.933ZM1017.53 647.933L1016.04 649.276L1016.11 649.347L1016.18 649.411L1017.53 647.933ZM1017.53 705.755L1016.11 704.343L1016.11 704.343L1017.53 705.755ZM1010.29 633.532L1011.7 632.119L1011.7 632.119L1010.29 633.532ZM1010.29 624.957L1011.6 626.461L1011.61 626.456L1010.29 624.957ZM1018.62 624.957L1017.25 626.415L1017.3 626.459L1017.35 626.5L1018.62 624.957ZM1018.73 633.532L1017.32 632.119L1017.32 632.119L1018.73 633.532ZM1043.75 669.809L1041.75 669.712L1041.65 671.809H1043.75V669.809ZM1047.26 657.606L1045.55 656.564L1045.54 656.577L1045.53 656.59L1047.26 657.606ZM1055.7 649.142L1054.69 647.415L1054.68 647.42L1054.68 647.425L1055.7 649.142ZM1077.2 651.67L1079.13 652.184L1079.14 652.16L1079.14 652.136L1077.2 651.67ZM1075.66 653.869L1074.77 652.081L1074.73 652.1L1074.69 652.121L1075.66 653.869ZM1073.14 654.309L1072.99 656.303L1073 656.303L1073.14 654.309ZM1069.85 654.089L1069.67 656.081L1069.7 656.083L1069.73 656.085L1069.85 654.089ZM1058.88 655.408L1059.58 657.282L1059.59 657.277L1059.6 657.273L1058.88 655.408ZM1051.31 660.904L1049.72 659.691L1049.71 659.706L1049.7 659.721L1051.31 660.904ZM1048.57 669.809V671.809H1050.57V669.809H1048.57ZM1041.33 705.755L1039.92 707.168L1039.92 707.168L1041.33 705.755ZM1041.33 647.823L1042.75 649.235L1042.75 649.235L1041.33 647.823ZM1047.47 647.823L1046.06 649.235L1046.06 649.235L1047.47 647.823ZM1047.47 705.755L1046.06 704.343L1046.06 704.343L1047.47 705.755ZM1098.81 732.578L1098 734.407L1098.03 734.421L1098.06 734.435L1098.81 732.578ZM1096.72 727.302L1098.54 728.128L1098.54 728.126L1096.72 727.302ZM1132.15 649.032L1130.34 648.185L1130.33 648.196L1130.33 648.207L1132.15 649.032ZM1137.41 647.053L1136.63 648.894L1136.64 648.898L1136.65 648.902L1137.41 647.053ZM1139.5 652.22L1141.32 653.047L1141.32 653.046L1139.5 652.22ZM1103.96 730.49L1102.14 729.663L1102.13 729.678L1102.13 729.694L1103.96 730.49ZM1112.95 704.986L1113.8 706.798L1113.8 706.798L1112.95 704.986ZM1109.88 705.316L1109.16 707.182L1109.23 707.207L1109.29 707.227L1109.88 705.316ZM1107.58 703.117L1105.78 703.985L1105.8 704.021L1105.81 704.057L1107.58 703.117ZM1083.12 652.33L1081.31 653.174L1081.31 653.186L1081.32 653.198L1083.12 652.33ZM1082.9 649.252L1081.03 648.535L1081.03 648.535L1082.9 649.252ZM1085.1 647.053L1084.25 645.242L1084.25 645.242L1085.1 647.053ZM1088.17 646.833L1087.45 648.7L1087.51 648.724L1087.58 648.745L1088.17 646.833ZM1090.36 648.922L1088.55 649.766L1088.55 649.777L1090.36 648.922ZM1114.38 699.709L1112.57 700.564L1112.59 700.607L1112.61 700.649L1114.38 699.709ZM1114.93 702.787L1116.88 703.236L1116.88 703.236L1114.93 702.787ZM855.608 829.441C854.822 829.441 854.308 829.206 853.902 828.799L851.07 831.624C852.299 832.856 853.867 833.441 855.608 833.441V829.441ZM853.902 828.799C853.495 828.392 853.26 827.874 853.26 827.082H849.26C849.26 828.824 849.842 830.393 851.07 831.624L853.902 828.799ZM853.26 827.082V748.514H849.26V827.082H853.26ZM853.26 748.514C853.26 747.722 853.495 747.205 853.902 746.798L851.07 743.972C849.842 745.204 849.26 746.773 849.26 748.514H853.26ZM853.902 746.798C854.308 746.39 854.822 746.156 855.608 746.156V742.156C853.867 742.156 852.299 742.74 851.07 743.972L853.902 746.798ZM855.608 746.156H875.68V742.156H855.608V746.156ZM875.68 746.156C881.844 746.156 887.419 747.196 892.429 749.248L893.944 745.546C888.398 743.275 882.301 742.156 875.68 742.156V746.156ZM892.46 749.26C897.559 751.247 901.925 754.11 905.584 757.848L908.442 755.05C904.37 750.89 899.519 747.718 893.913 745.533L892.46 749.26ZM905.597 757.862C909.262 761.535 912.088 765.883 914.073 770.928L917.795 769.464C915.617 763.929 912.496 759.112 908.429 755.037L905.597 757.862ZM914.082 770.951C916.129 775.974 917.168 781.562 917.168 787.742H921.168C921.168 781.107 920.051 774.998 917.786 769.441L914.082 770.951ZM917.168 787.742C917.168 793.922 916.129 799.552 914.078 804.655L917.79 806.147C920.051 800.521 921.168 794.378 921.168 787.742H917.168ZM914.073 804.668C912.086 809.717 909.257 814.108 905.584 817.86L908.442 820.658C912.501 816.513 915.618 811.665 917.795 806.133L914.073 804.668ZM905.597 817.847C901.933 821.52 897.554 824.392 892.438 826.457L893.935 830.166C899.523 827.91 904.363 824.747 908.429 820.672L905.597 817.847ZM892.451 826.452C887.435 828.435 881.853 829.441 875.68 829.441V833.441C882.293 833.441 888.382 832.362 893.922 830.172L892.451 826.452ZM875.68 829.441H855.608V833.441H875.68V829.441ZM859.957 825.618H875.68V821.618H859.957V825.618ZM875.68 825.618C882.826 825.618 889.206 824.018 894.756 820.76L892.731 817.311C887.874 820.162 882.211 821.618 875.68 821.618V825.618ZM894.764 820.756C900.347 817.446 904.725 812.94 907.87 807.264L904.372 805.325C901.571 810.379 897.697 814.367 892.724 817.315L894.764 820.756ZM907.876 807.254C911.029 801.488 912.582 794.967 912.582 787.742H908.582C908.582 794.377 907.161 800.224 904.366 805.335L907.876 807.254ZM912.582 787.742C912.582 780.519 911.029 774.03 907.87 768.332L904.372 770.271C907.161 775.303 908.582 781.108 908.582 787.742H912.582ZM907.876 768.342C904.73 762.588 900.346 758.071 894.746 754.83L892.742 758.292C897.698 761.16 901.565 765.138 904.366 770.261L907.876 768.342ZM894.756 754.836C889.206 751.578 882.826 749.979 875.68 749.979V753.979C882.211 753.979 887.874 755.434 892.731 758.286L894.756 754.836ZM875.68 749.979H859.957V753.979H875.68V749.979ZM857.957 751.979V823.618H861.957V751.979H857.957ZM962.826 830C957.428 830 952.656 828.739 948.456 826.255L946.42 829.698C951.289 832.578 956.776 834 962.826 834V830ZM948.477 826.268C944.238 823.69 940.871 820.215 938.359 815.81L934.885 817.791C937.726 822.774 941.569 826.749 946.399 829.686L948.477 826.268ZM938.371 815.831C935.949 811.462 934.719 806.511 934.719 800.93H930.719C930.719 807.122 932.091 812.751 934.873 817.77L938.371 815.831ZM934.719 800.93C934.719 795.28 935.984 790.301 938.471 785.939L934.996 783.958C932.13 788.984 930.719 794.659 930.719 800.93H934.719ZM938.459 785.96C941.035 781.564 944.5 778.127 948.878 775.62L946.89 772.149C941.902 775.006 937.933 778.945 935.008 783.937L938.459 785.96ZM948.899 775.608C953.25 773.046 958.173 771.749 963.718 771.749V767.749C957.519 767.749 951.885 769.208 946.87 772.161L948.899 775.608ZM963.718 771.749C969.264 771.749 974.144 773.046 978.414 775.6L980.467 772.168C975.52 769.208 969.918 767.749 963.718 767.749V771.749ZM978.447 775.62C982.82 778.124 986.243 781.555 988.743 785.939L992.218 783.958C989.365 778.954 985.428 775.009 980.435 772.149L978.447 775.62ZM988.755 785.96C991.313 790.326 992.647 795.308 992.718 800.955L996.717 800.905C996.639 794.632 995.148 788.959 992.206 783.937L988.755 785.96ZM993.491 799.35L990.035 802.032L992.487 805.193L995.943 802.51L993.491 799.35ZM989.261 803.613C989.261 808.649 988.078 813.139 985.743 817.132L989.196 819.151C991.915 814.502 993.261 809.306 993.261 803.613H989.261ZM985.738 817.141C983.461 821.083 980.329 824.226 976.309 826.587L978.335 830.036C982.939 827.331 986.572 823.694 989.201 819.142L985.738 817.141ZM976.318 826.582C972.418 828.845 967.939 830 962.826 830V834C968.567 834 973.752 832.696 978.326 830.042L976.318 826.582ZM963.718 826.177C968.354 826.177 972.546 825.091 976.234 822.873L974.173 819.445C971.171 821.251 967.706 822.177 963.718 822.177V826.177ZM976.218 822.883C979.949 820.688 982.879 817.668 984.983 813.855L981.481 811.922C979.72 815.113 977.297 817.607 974.189 819.435L976.218 822.883ZM984.976 813.868C987.163 809.971 988.243 805.644 988.243 800.93H984.243C984.243 805.009 983.315 808.654 981.488 811.91L984.976 813.868ZM988.243 800.93C988.243 796.149 987.166 791.814 984.967 787.977L981.497 789.966C983.312 793.134 984.243 796.77 984.243 800.93H988.243ZM984.983 788.005C982.879 784.192 979.949 781.173 976.218 778.978L974.189 782.425C977.297 784.254 979.72 786.748 981.481 789.938L984.983 788.005ZM976.262 779.004C972.57 776.702 968.368 775.572 963.718 775.572V779.572C967.692 779.572 971.147 780.529 974.145 782.399L976.262 779.004ZM963.718 775.572C959.136 775.572 954.943 776.705 951.191 778.994L953.275 782.409C956.362 780.525 959.826 779.572 963.718 779.572V775.572ZM951.219 778.978C947.494 781.169 944.535 784.179 942.358 787.977L945.828 789.966C947.666 786.761 950.133 784.258 953.247 782.425L951.219 778.978ZM942.358 787.977C940.159 791.814 939.082 796.149 939.082 800.93H943.082C943.082 796.77 944.013 793.134 945.828 789.966L942.358 787.977ZM939.082 800.93C939.082 805.644 940.162 809.971 942.349 813.868L945.837 811.91C944.01 808.654 943.082 805.009 943.082 800.93H939.082ZM942.358 813.883C944.535 817.681 947.494 820.692 951.219 822.883L953.247 819.435C950.133 817.603 947.666 815.1 945.828 811.894L942.358 813.883ZM951.219 822.883C954.967 825.088 959.15 826.177 963.718 826.177V822.177C959.812 822.177 956.338 821.254 953.247 819.435L951.219 822.883ZM990.369 829.441C989.527 829.441 988.99 829.207 988.593 828.845L985.899 831.802C987.138 832.931 988.683 833.441 990.369 833.441V829.441ZM988.662 828.911C988.256 828.503 988.02 827.986 988.02 827.194H984.02C984.02 828.936 984.602 830.505 985.831 831.736L988.662 828.911ZM988.02 827.194V808.083H984.02V827.194H988.02ZM987.965 808.55L990.083 799.721L986.194 798.787L984.075 807.616L987.965 808.55ZM987.645 801.192L994.224 802.868L995.211 798.992L988.632 797.316L987.645 801.192ZM992.717 800.93V827.194H996.717V800.93H992.717ZM992.717 827.194C992.717 827.986 992.482 828.503 992.075 828.911L994.907 831.736C996.135 830.505 996.717 828.936 996.717 827.194H992.717ZM992.144 828.845C991.747 829.207 991.21 829.441 990.369 829.441V833.441C992.055 833.441 993.599 832.931 994.838 831.802L992.144 828.845ZM1032.71 830C1028.56 830 1024.43 829.295 1020.32 827.874L1019.01 831.655C1023.53 833.215 1028.1 834 1032.71 834V830ZM1020.32 827.874C1016.29 826.48 1013.09 824.417 1010.67 821.723L1007.7 824.395C1010.63 827.661 1014.43 830.07 1019.01 831.655L1020.32 827.874ZM1010.66 821.709C1010.21 821.215 1010.1 820.788 1010.17 820.305L1006.2 819.778C1005.97 821.53 1006.53 823.115 1007.71 824.409L1010.66 821.709ZM1010.17 820.305C1010.24 819.741 1010.51 819.203 1011.15 818.661L1008.56 815.61C1007.27 816.708 1006.42 818.107 1006.2 819.778L1010.17 820.305ZM1011.02 818.762C1011.71 818.269 1012.28 818.152 1012.82 818.224L1013.35 814.259C1011.66 814.033 1010.08 814.512 1008.69 815.51L1011.02 818.762ZM1012.82 818.224C1013.48 818.312 1013.98 818.575 1014.4 819.038L1017.36 816.351C1016.29 815.175 1014.93 814.47 1013.35 814.259L1012.82 818.224ZM1014.36 818.994C1016.38 821.365 1019.01 823.145 1022.18 824.366L1023.62 820.634C1020.99 819.62 1018.94 818.197 1017.4 816.395L1014.36 818.994ZM1022.2 824.372C1025.42 825.584 1028.94 826.177 1032.71 826.177V822.177C1029.36 822.177 1026.33 821.651 1023.61 820.628L1022.2 824.372ZM1032.71 826.177C1038.35 826.177 1042.87 825.241 1045.86 822.976L1043.44 819.79C1041.51 821.25 1038.08 822.177 1032.71 822.177V826.177ZM1045.89 822.952C1048.72 820.715 1050.34 817.884 1050.44 814.509L1046.44 814.398C1046.38 816.387 1045.48 818.176 1043.41 819.813L1045.89 822.952ZM1050.44 814.453C1050.44 811.008 1048.76 808.23 1045.77 806.204L1043.52 809.515C1045.59 810.916 1046.44 812.535 1046.44 814.453H1050.44ZM1045.8 806.227C1042.89 804.17 1038.36 802.733 1032.49 801.752L1031.83 805.697C1037.55 806.653 1041.34 807.973 1043.49 809.492L1045.8 806.227ZM1032.47 801.749C1025.11 800.581 1020.04 798.576 1016.95 795.944L1014.36 798.987C1018.26 802.316 1024.18 804.484 1031.84 805.7L1032.47 801.749ZM1016.95 795.944C1013.84 793.292 1012.41 790.286 1012.41 786.848H1008.41C1008.41 791.607 1010.48 795.678 1014.36 798.987L1016.95 795.944ZM1012.41 786.848C1012.41 783.417 1013.31 780.711 1014.99 778.591L1011.86 776.107C1009.52 779.053 1008.41 782.68 1008.41 786.848H1012.41ZM1014.99 778.591C1016.75 776.37 1019.12 774.672 1022.16 773.519L1020.74 769.778C1017.1 771.159 1014.11 773.261 1011.86 776.107L1014.99 778.591ZM1022.16 773.519C1025.25 772.348 1028.69 771.749 1032.49 771.749V767.749C1028.26 767.749 1024.34 768.416 1020.74 769.778L1022.16 773.519ZM1032.49 771.749C1037.25 771.749 1041.21 772.567 1044.45 774.122L1046.18 770.517C1042.28 768.644 1037.7 767.749 1032.49 767.749V771.749ZM1044.46 774.129C1047.85 775.721 1050.52 777.838 1052.54 780.466L1055.71 778.031C1053.27 774.848 1050.07 772.346 1046.17 770.51L1044.46 774.129ZM1052.54 780.466C1053.01 781.082 1053.1 781.559 1053.04 781.984L1057 782.548C1057.23 780.887 1056.72 779.353 1055.71 778.031L1052.54 780.466ZM1053.04 781.984C1052.98 782.35 1052.8 782.738 1052.15 783.155L1054.32 786.518C1055.75 785.594 1056.75 784.268 1057 782.548L1053.04 781.984ZM1052.22 783.11C1051.77 783.375 1051.18 783.514 1050.36 783.411L1049.86 787.38C1051.41 787.575 1052.91 787.341 1054.24 786.563L1052.22 783.11ZM1050.5 783.435C1049.83 783.3 1049.24 782.972 1048.69 782.369L1045.73 785.069C1046.82 786.255 1048.16 787.044 1049.72 787.356L1050.5 783.435ZM1048.73 782.415C1046.67 780.028 1044.26 778.262 1041.48 777.165L1040.01 780.885C1042.14 781.725 1044.03 783.088 1045.69 785.023L1048.73 782.415ZM1041.53 777.185C1038.78 776.017 1035.68 775.46 1032.27 775.46V779.46C1035.25 779.46 1037.8 779.947 1039.96 780.866L1041.53 777.185ZM1032.27 775.46C1027.92 775.46 1024.2 776.371 1021.31 778.391L1023.6 781.671C1025.62 780.263 1028.44 779.46 1032.27 779.46V775.46ZM1021.34 778.368C1018.44 780.307 1016.78 782.97 1016.78 786.29H1020.78C1020.78 784.542 1021.56 783.033 1023.57 781.694L1021.34 778.368ZM1016.78 786.29C1016.78 788.37 1017.32 790.272 1018.48 791.912L1021.75 789.608C1021.12 788.714 1020.78 787.637 1020.78 786.29H1016.78ZM1018.52 791.973C1019.78 793.617 1021.72 794.908 1024.11 795.947L1025.71 792.278C1023.64 791.38 1022.38 790.436 1021.7 789.547L1018.52 791.973ZM1024.13 795.957C1026.65 797.013 1030.02 797.864 1034.17 798.545L1034.82 794.598C1030.8 793.939 1027.78 793.15 1025.68 792.269L1024.13 795.957ZM1034.18 798.546C1039.64 799.421 1043.77 800.711 1046.68 802.34L1048.63 798.85C1045.15 796.902 1040.51 795.51 1034.82 794.597L1034.18 798.546ZM1046.73 802.367C1049.77 803.962 1051.73 805.773 1052.83 807.721L1056.31 805.763C1054.73 802.942 1052.08 800.656 1048.58 798.823L1046.73 802.367ZM1052.86 807.785C1054.08 809.775 1054.69 811.946 1054.69 814.342H1058.69C1058.69 811.224 1057.88 808.328 1056.28 805.699L1052.86 807.785ZM1054.69 814.342C1054.69 817.415 1053.79 820.072 1051.99 822.392L1055.15 824.844C1057.51 821.799 1058.69 818.272 1058.69 814.342H1054.69ZM1051.98 822.398C1050.23 824.676 1047.71 826.531 1044.33 827.914L1045.85 831.616C1049.75 830.018 1052.89 827.776 1055.15 824.838L1051.98 822.398ZM1044.32 827.919C1041.04 829.288 1037.19 830 1032.71 830V834C1037.61 834 1042 833.222 1045.86 831.61L1044.32 827.919ZM1123.82 829.441C1123.04 829.441 1122.52 829.206 1122.12 828.799L1119.28 831.624C1120.51 832.856 1122.08 833.441 1123.82 833.441V829.441ZM1122.12 828.799C1121.69 828.367 1121.47 827.874 1121.47 827.194H1117.47C1117.47 828.898 1118.08 830.418 1119.28 831.624L1122.12 828.799ZM1121.47 827.194V798.136H1117.47V827.194H1121.47ZM1121.47 798.136C1121.47 793.271 1120.54 789.086 1118.51 785.709L1115.08 787.764C1116.63 790.347 1117.47 793.763 1117.47 798.136H1121.47ZM1118.53 785.741C1116.63 782.419 1113.95 779.902 1110.54 778.234L1108.78 781.828C1111.47 783.14 1113.55 785.094 1115.06 787.732L1118.53 785.741ZM1110.56 778.243C1107.27 776.595 1103.57 775.796 1099.51 775.796V779.796C1103.04 779.796 1106.11 780.487 1108.77 781.819L1110.56 778.243ZM1099.51 775.796C1095.61 775.796 1092 776.557 1088.73 778.113L1090.45 781.725C1093.13 780.45 1096.14 779.796 1099.51 779.796V775.796ZM1088.71 778.122C1085.53 779.675 1082.95 781.829 1081.03 784.589L1084.32 786.873C1085.82 784.715 1087.85 782.994 1090.47 781.716L1088.71 778.122ZM1081.03 784.589C1079.08 787.398 1078.11 790.595 1078.11 794.113H1082.11C1082.11 791.372 1082.85 788.981 1084.32 786.873L1081.03 784.589ZM1080.11 792.113H1073.98V796.113H1080.11V792.113ZM1075.98 794.176C1076.12 789.819 1077.28 786.008 1079.45 782.687L1076.09 780.504C1073.5 784.485 1072.14 789.019 1071.98 794.05L1075.98 794.176ZM1079.46 782.672C1081.65 779.241 1084.55 776.572 1088.18 774.646L1086.31 771.111C1082.07 773.357 1078.65 776.5 1076.08 780.519L1079.46 782.672ZM1088.21 774.632C1091.83 772.645 1095.88 771.637 1100.41 771.637V767.637C1095.26 767.637 1090.54 768.79 1086.29 771.125L1088.21 774.632ZM1100.41 771.637C1105.39 771.637 1109.78 772.691 1113.62 774.752L1115.51 771.228C1111.03 768.819 1105.98 767.637 1100.41 767.637V771.637ZM1113.65 774.765C1117.45 776.739 1120.44 779.659 1122.64 783.579L1126.13 781.624C1123.56 777.05 1120.01 773.562 1115.49 771.215L1113.65 774.765ZM1122.65 783.602C1124.89 787.478 1126.06 792.293 1126.06 798.136H1130.06C1130.06 791.761 1128.78 786.218 1126.11 781.601L1122.65 783.602ZM1126.06 798.136V827.194H1130.06V798.136H1126.06ZM1126.06 827.194C1126.06 827.874 1125.85 828.367 1125.42 828.799L1128.25 831.624C1129.45 830.418 1130.06 828.898 1130.06 827.194H1126.06ZM1125.42 828.799C1124.99 829.231 1124.5 829.441 1123.82 829.441V833.441C1125.53 833.441 1127.05 832.831 1128.25 831.624L1125.42 828.799ZM1075.87 829.441C1074.93 829.441 1074.36 829.187 1073.99 828.845L1071.29 831.802C1072.55 832.95 1074.15 833.441 1075.87 833.441V829.441ZM1074.12 828.98C1073.76 828.582 1073.53 828.041 1073.53 827.194H1069.53C1069.53 828.881 1070.03 830.426 1071.16 831.667L1074.12 828.98ZM1073.53 827.194V774.666H1069.53V827.194H1073.53ZM1073.53 774.666C1073.53 773.703 1073.78 773.224 1074.06 772.95L1071.23 770.124C1070.01 771.34 1069.53 772.948 1069.53 774.666H1073.53ZM1074.06 772.95C1074.44 772.565 1074.98 772.308 1075.87 772.308V768.308C1074.1 768.308 1072.48 768.87 1071.23 770.124L1074.06 772.95ZM1075.87 772.308C1076.66 772.308 1077.1 772.541 1077.4 772.881L1080.37 770.193C1079.19 768.895 1077.61 768.308 1075.87 768.308V772.308ZM1077.54 773.015C1077.85 773.302 1078.11 773.759 1078.11 774.666H1082.11C1082.11 772.892 1081.55 771.262 1080.23 770.059L1077.54 773.015ZM1078.11 774.666V827.194H1082.11V774.666H1078.11ZM1078.11 827.194C1078.11 827.986 1077.88 828.503 1077.47 828.911L1080.3 831.736C1081.53 830.505 1082.11 828.936 1082.11 827.194H1078.11ZM1077.47 828.911C1077.18 829.206 1076.72 829.441 1075.87 829.441V833.441C1077.56 833.441 1079.11 832.931 1080.3 831.736L1077.47 828.911ZM1075.87 804.518C1074.98 804.518 1074.44 804.261 1074.06 803.876L1071.23 806.702C1072.48 807.956 1074.1 808.518 1075.87 808.518V804.518ZM1074.12 803.945C1073.76 803.547 1073.53 803.006 1073.53 802.16H1069.53C1069.53 803.846 1070.03 805.392 1071.16 806.633L1074.12 803.945ZM1073.53 802.16V748.514H1069.53V802.16H1073.53ZM1073.53 748.514C1073.53 747.55 1073.78 747.072 1074.06 746.798L1071.23 743.972C1070.01 745.188 1069.53 746.796 1069.53 748.514H1073.53ZM1074.06 746.798C1074.44 746.413 1074.98 746.156 1075.87 746.156V742.156C1074.1 742.156 1072.48 742.718 1071.23 743.972L1074.06 746.798ZM1075.87 746.156C1076.66 746.156 1077.1 746.388 1077.4 746.729L1080.37 744.041C1079.19 742.742 1077.61 742.156 1075.87 742.156V746.156ZM1077.54 746.863C1077.85 747.15 1078.11 747.606 1078.11 748.514H1082.11C1082.11 746.74 1081.55 745.11 1080.23 743.907L1077.54 746.863ZM1078.11 748.514V802.16H1082.11V748.514H1078.11ZM1078.11 802.16C1078.11 802.951 1077.88 803.469 1077.47 803.876L1080.3 806.702C1081.53 805.47 1082.11 803.901 1082.11 802.16H1078.11ZM1077.4 803.945C1077.1 804.286 1076.66 804.518 1075.87 804.518V808.518C1077.61 808.518 1079.19 807.932 1080.37 806.633L1077.4 803.945ZM855.277 704.855C854.512 704.855 854.015 704.627 853.622 704.233L850.791 707.058C852.006 708.277 853.557 708.855 855.277 708.855V704.855ZM853.622 704.233C853.229 703.839 853 703.338 853 702.567H849C849 704.288 849.575 705.84 850.791 707.058L853.622 704.233ZM853 702.567V625.287H849V702.567H853ZM853 625.287C853 624.516 853.229 624.016 853.622 623.622L850.791 620.797C849.575 622.015 849 623.567 849 625.287H853ZM853.622 623.622C854.015 623.228 854.512 623 855.277 623V619C853.557 619 852.006 619.578 850.791 620.797L853.622 623.622ZM855.277 623H875.02V619H855.277V623ZM875.02 623C881.08 623 886.558 624.023 891.482 626.039L892.997 622.337C887.538 620.102 881.537 619 875.02 619V623ZM891.513 626.051C896.524 628.004 900.815 630.818 904.411 634.491L907.269 631.693C903.26 627.598 898.484 624.475 892.966 622.324L891.513 626.051ZM904.424 634.505C908.025 638.114 910.802 642.387 912.753 647.346L916.475 645.881C914.332 640.433 911.259 635.692 907.256 631.68L904.424 634.505ZM912.762 647.368C914.774 652.304 915.795 657.797 915.795 663.872H919.795C919.795 657.342 918.696 651.329 916.466 645.859L912.762 647.368ZM915.795 663.872C915.795 669.947 914.774 675.48 912.758 680.495L916.47 681.987C918.695 676.449 919.795 670.403 919.795 663.872H915.795ZM912.753 680.509C910.801 685.471 908.02 689.786 904.411 693.473L907.269 696.272C911.264 692.191 914.333 687.418 916.475 681.974L912.753 680.509ZM904.424 693.46C900.822 697.07 896.519 699.892 891.491 701.922L892.988 705.631C898.489 703.411 903.253 700.297 907.256 696.285L904.424 693.46ZM891.504 701.917C886.575 703.865 881.088 704.855 875.02 704.855V708.855C881.528 708.855 887.521 707.792 892.975 705.637L891.504 701.917ZM875.02 704.855H855.277V708.855H875.02V704.855ZM859.555 701.16H875.02V697.16H859.555V701.16ZM875.02 701.16C882.054 701.16 888.336 699.585 893.8 696.377L891.775 692.928C887.003 695.729 881.439 697.16 875.02 697.16V701.16ZM893.808 696.373C899.305 693.114 903.615 688.678 906.712 683.09L903.213 681.151C900.46 686.117 896.654 690.035 891.768 692.932L893.808 696.373ZM906.717 683.08C909.821 677.403 911.349 670.983 911.349 663.872H907.349C907.349 670.393 905.953 676.139 903.207 681.161L906.717 683.08ZM911.349 663.872C911.349 656.762 909.821 650.375 906.712 644.764L903.213 646.704C905.953 651.647 907.349 657.351 907.349 663.872H911.349ZM906.717 644.775C903.62 639.109 899.304 634.662 893.79 631.471L891.786 634.933C896.655 637.751 900.455 641.659 903.207 646.693L906.717 644.775ZM893.8 631.477C888.336 628.269 882.054 626.695 875.02 626.695V630.695C881.439 630.695 887.003 632.125 891.775 634.927L893.8 631.477ZM875.02 626.695H859.555V630.695H875.02V626.695ZM857.555 628.695V699.16H861.555V628.695H857.555ZM960.738 705.404C955.434 705.404 950.746 704.166 946.62 701.726L944.584 705.168C949.379 708.005 954.781 709.404 960.738 709.404V705.404ZM946.641 701.738C942.476 699.206 939.168 695.791 936.701 691.463L933.226 693.445C936.023 698.351 939.807 702.265 944.563 705.156L946.641 701.738ZM936.712 691.484C934.333 687.192 933.124 682.328 933.124 676.844H929.124C929.124 682.939 930.475 688.482 933.214 693.424L936.712 691.484ZM933.124 676.844C933.124 671.292 934.367 666.4 936.81 662.115L933.335 660.134C930.514 665.083 929.124 670.671 929.124 676.844H933.124ZM936.798 662.135C939.329 657.817 942.734 654.44 947.035 651.977L945.047 648.506C940.135 651.319 936.228 655.197 933.347 660.113L936.798 662.135ZM947.055 651.965C951.33 649.449 956.166 648.174 961.615 648.174V644.174C955.512 644.174 949.965 645.611 945.026 648.518L947.055 651.965ZM961.615 648.174C967.065 648.174 971.859 649.449 976.053 651.958L978.107 648.525C973.234 645.61 967.718 644.174 961.615 644.174V648.174ZM976.086 651.977C980.382 654.437 983.745 657.808 986.201 662.115L989.676 660.134C986.867 655.207 982.991 651.322 978.074 648.506L976.086 651.977ZM986.213 662.135C988.726 666.425 990.037 671.319 990.106 676.869L994.106 676.819C994.029 670.643 992.561 665.058 989.664 660.113L986.213 662.135ZM990.88 675.264L987.48 677.902L989.932 681.062L993.332 678.424L990.88 675.264ZM986.706 679.482C986.706 684.43 985.545 688.841 983.25 692.763L986.703 694.783C989.381 690.204 990.706 685.088 990.706 679.482H986.706ZM983.245 692.773C981.009 696.645 977.932 699.732 973.983 702.052L976.009 705.501C980.542 702.838 984.119 699.256 986.709 694.774L983.245 692.773ZM973.992 702.047C970.161 704.27 965.762 705.404 960.738 705.404V709.404C966.389 709.404 971.495 708.121 976 705.507L973.992 702.047ZM961.615 701.709C966.18 701.709 970.309 700.64 973.943 698.455L971.881 695.027C968.934 696.8 965.532 697.709 961.615 697.709V701.709ZM973.926 698.465C977.601 696.303 980.487 693.329 982.56 689.573L979.058 687.64C977.329 690.773 974.95 693.222 971.898 695.017L973.926 698.465ZM982.553 689.585C984.707 685.747 985.77 681.485 985.77 676.844H981.77C981.77 680.851 980.859 684.43 979.065 687.628L982.553 689.585ZM985.77 676.844C985.77 672.136 984.71 667.866 982.544 664.087L979.074 666.076C980.856 669.186 981.77 672.757 981.77 676.844H985.77ZM982.56 664.115C980.487 660.359 977.601 657.385 973.926 655.223L971.898 658.671C974.95 660.466 977.329 662.915 979.058 666.048L982.56 664.115ZM973.97 655.25C970.333 652.981 966.194 651.869 961.615 651.869V655.869C965.518 655.869 968.91 656.808 971.854 658.644L973.97 655.25ZM961.615 651.869C957.102 651.869 952.972 652.985 949.277 655.24L951.36 658.654C954.391 656.805 957.793 655.869 961.615 655.869V651.869ZM949.304 655.223C945.635 657.381 942.72 660.346 940.576 664.087L944.047 666.076C945.851 662.928 948.274 660.47 951.332 658.671L949.304 655.223ZM940.576 664.087C938.41 667.866 937.35 672.136 937.35 676.844H941.35C941.35 672.757 942.264 669.186 944.047 666.076L940.576 664.087ZM937.35 676.844C937.35 681.485 938.413 685.747 940.567 689.585L944.056 687.628C942.261 684.43 941.35 680.851 941.35 676.844H937.35ZM940.576 689.601C942.72 693.342 945.635 696.307 949.304 698.465L951.332 695.017C948.274 693.218 945.851 690.76 944.047 687.612L940.576 689.601ZM949.304 698.465C952.996 700.637 957.116 701.709 961.615 701.709V697.709C957.779 697.709 954.367 696.803 951.332 695.017L949.304 698.465ZM987.829 704.855C987.008 704.855 986.488 704.626 986.105 704.277L983.41 707.234C984.636 708.35 986.163 708.855 987.829 708.855V704.855ZM986.173 704.343C985.78 703.949 985.551 703.448 985.551 702.677H981.551C981.551 704.398 982.126 705.95 983.342 707.168L986.173 704.343ZM985.551 702.677V683.88H981.551V702.677H985.551ZM985.496 684.346L987.58 675.662L983.69 674.728L981.606 683.413L985.496 684.346ZM985.141 677.133L991.612 678.782L992.6 674.906L986.129 673.257L985.141 677.133ZM990.106 676.844V702.677H994.106V676.844H990.106ZM990.106 702.677C990.106 703.448 989.877 703.949 989.484 704.343L992.315 707.168C993.531 705.95 994.106 704.398 994.106 702.677H990.106ZM989.553 704.277C989.169 704.626 988.649 704.855 987.829 704.855V708.855C989.494 708.855 991.021 708.35 992.247 707.234L989.553 704.277ZM1014.56 704.855C1013.64 704.855 1013.09 704.607 1012.73 704.277L1010.04 707.234C1011.28 708.37 1012.86 708.855 1014.56 708.855V704.855ZM1012.86 704.412C1012.53 704.048 1012.29 703.501 1012.29 702.567H1008.29C1008.29 704.273 1008.77 705.85 1009.9 707.099L1012.86 704.412ZM1012.29 702.567V651.011H1008.29V702.567H1012.29ZM1012.29 651.011C1012.29 650.069 1012.54 649.608 1012.8 649.345L1009.97 646.52C1008.77 647.723 1008.29 649.314 1008.29 651.011H1012.29ZM1012.8 649.345C1013.17 648.974 1013.69 648.723 1014.56 648.723V644.723C1012.81 644.723 1011.21 645.279 1009.97 646.52L1012.8 649.345ZM1014.56 648.723C1015.33 648.723 1015.75 648.95 1016.04 649.276L1019.01 646.589C1017.84 645.304 1016.28 644.723 1014.56 644.723V648.723ZM1016.18 649.411C1016.48 649.686 1016.73 650.125 1016.73 651.011H1020.73C1020.73 649.258 1020.18 647.645 1018.87 646.454L1016.18 649.411ZM1016.73 651.011V702.567H1020.73V651.011H1016.73ZM1016.73 702.567C1016.73 703.448 1016.48 703.971 1016.11 704.343L1018.94 707.168C1020.18 705.927 1020.73 704.326 1020.73 702.567H1016.73ZM1016.11 704.343C1015.83 704.626 1015.39 704.855 1014.56 704.855V708.855C1016.22 708.855 1017.76 708.351 1018.94 707.168L1016.11 704.343ZM1014.45 633.291C1013.39 633.291 1012.51 632.928 1011.7 632.119L1008.87 634.945C1010.4 636.481 1012.3 637.291 1014.45 637.291V633.291ZM1011.7 632.119C1010.91 631.329 1010.53 630.411 1010.53 629.245H1006.53C1006.53 631.449 1007.32 633.39 1008.87 634.945L1011.7 632.119ZM1010.53 629.245C1010.53 627.876 1010.95 627.039 1011.6 626.461L1008.97 623.454C1007.29 624.928 1006.53 626.949 1006.53 629.245H1010.53ZM1011.61 626.456C1012.5 625.668 1013.46 625.309 1014.56 625.309V621.309C1012.45 621.309 1010.56 622.048 1008.96 623.459L1011.61 626.456ZM1014.56 625.309C1015.57 625.309 1016.43 625.647 1017.25 626.415L1019.99 623.5C1018.47 622.07 1016.63 621.309 1014.56 621.309V625.309ZM1017.35 626.5C1018.07 627.091 1018.49 627.918 1018.49 629.245H1022.49C1022.49 626.907 1021.66 624.876 1019.9 623.415L1017.35 626.5ZM1018.49 629.245C1018.49 630.411 1018.1 631.329 1017.32 632.119L1020.15 634.945C1021.7 633.39 1022.49 631.449 1022.49 629.245H1018.49ZM1017.32 632.119C1016.53 632.909 1015.61 633.291 1014.45 633.291V637.291C1016.66 637.291 1018.6 636.5 1020.15 634.945L1017.32 632.119ZM1045.74 669.905C1045.95 665.656 1047.04 661.91 1048.98 658.623L1045.53 656.59C1043.23 660.485 1041.98 664.874 1041.75 669.712L1045.74 669.905ZM1048.96 658.649C1051 655.32 1053.58 652.736 1056.73 650.859L1054.68 647.425C1050.95 649.652 1047.9 652.711 1045.55 656.564L1048.96 658.649ZM1056.71 650.868C1059.9 649.003 1063.42 648.064 1067.33 648.064V644.064C1062.75 644.064 1058.52 645.176 1054.69 647.415L1056.71 650.868ZM1067.33 648.064C1070.55 648.064 1072.77 648.528 1074.19 649.267L1076.04 645.719C1073.8 644.552 1070.83 644.064 1067.33 644.064V648.064ZM1074.19 649.267C1074.85 649.611 1075.11 649.932 1075.22 650.145C1075.31 650.337 1075.39 650.645 1075.25 651.205L1079.14 652.136C1079.45 650.863 1079.39 649.56 1078.8 648.359C1078.21 647.18 1077.21 646.328 1076.04 645.719L1074.19 649.267ZM1075.26 651.156C1075.06 651.926 1074.81 652.059 1074.77 652.081L1076.56 655.657C1077.98 654.946 1078.75 653.613 1079.13 652.184L1075.26 651.156ZM1074.69 652.121C1074.47 652.241 1074.05 652.369 1073.28 652.314L1073 656.303C1074.27 656.395 1075.53 656.229 1076.64 655.616L1074.69 652.121ZM1073.29 652.314C1072.33 652.24 1071.22 652.166 1069.97 652.092L1069.73 656.085C1070.97 656.158 1072.05 656.231 1072.99 656.303L1073.29 652.314ZM1070.03 652.097C1065.68 651.708 1061.71 652.167 1058.16 653.543L1059.6 657.273C1062.48 656.157 1065.82 655.736 1069.67 656.081L1070.03 652.097ZM1058.18 653.534C1054.71 654.829 1051.87 656.878 1049.72 659.691L1052.9 662.117C1054.56 659.947 1056.76 658.332 1059.58 657.282L1058.18 653.534ZM1049.7 659.721C1047.59 662.595 1046.57 665.99 1046.57 669.809H1050.57C1050.57 666.739 1051.38 664.197 1052.93 662.087L1049.7 659.721ZM1048.57 667.809H1043.75V671.809H1048.57V667.809ZM1044.4 704.855C1043.47 704.855 1043.01 704.605 1042.75 704.343L1039.92 707.168C1041.12 708.372 1042.71 708.855 1044.4 708.855V704.855ZM1042.75 704.343C1042.49 704.081 1042.24 703.619 1042.24 702.677H1038.24C1038.24 704.374 1038.72 705.965 1039.92 707.168L1042.75 704.343ZM1042.24 702.677V650.901H1038.24V702.677H1042.24ZM1042.24 650.901C1042.24 649.959 1042.49 649.498 1042.75 649.235L1039.92 646.41C1038.72 647.614 1038.24 649.204 1038.24 650.901H1042.24ZM1042.75 649.235C1043.01 648.974 1043.47 648.723 1044.4 648.723V644.723C1042.71 644.723 1041.12 645.206 1039.92 646.41L1042.75 649.235ZM1044.4 648.723C1045.34 648.723 1045.8 648.974 1046.06 649.235L1048.89 646.41C1047.69 645.206 1046.1 644.723 1044.4 644.723V648.723ZM1046.06 649.235C1046.32 649.498 1046.57 649.959 1046.57 650.901H1050.57C1050.57 649.204 1050.09 647.614 1048.89 646.41L1046.06 649.235ZM1046.57 650.901V702.677H1050.57V650.901H1046.57ZM1046.57 702.677C1046.57 703.619 1046.32 704.081 1046.06 704.343L1048.89 707.168C1050.09 705.965 1050.57 704.374 1050.57 702.677H1046.57ZM1046.06 704.343C1045.8 704.605 1045.34 704.855 1044.4 704.855V708.855C1046.1 708.855 1047.69 708.372 1048.89 707.168L1046.06 704.343ZM1100.78 731.018C1100.52 731.018 1100.12 730.951 1099.55 730.722L1098.06 734.435C1098.95 734.792 1099.87 735.018 1100.78 735.018V731.018ZM1099.61 730.749C1098.64 730.319 1098.36 729.911 1098.28 729.7C1098.2 729.5 1098.13 729.047 1098.54 728.128L1094.9 726.476C1094.22 727.975 1093.94 729.61 1094.56 731.169C1095.17 732.717 1096.48 733.738 1098 734.407L1099.61 730.749ZM1098.54 728.126L1133.97 649.857L1130.33 648.207L1094.9 726.477L1098.54 728.126ZM1133.96 649.879C1134.37 648.997 1134.76 648.736 1134.99 648.651C1135.22 648.563 1135.71 648.501 1136.63 648.894L1138.2 645.213C1136.71 644.579 1135.11 644.334 1133.58 644.906C1132.06 645.48 1131.02 646.722 1130.34 648.185L1133.96 649.879ZM1136.65 648.902C1137.62 649.302 1137.87 649.687 1137.94 649.863C1138.01 650.031 1138.1 650.465 1137.67 651.394L1141.32 653.046C1141.99 651.556 1142.28 649.92 1141.65 648.366C1141.03 646.819 1139.69 645.83 1138.18 645.204L1136.65 648.902ZM1137.68 651.393L1102.14 729.663L1105.78 731.316L1141.32 653.047L1137.68 651.393ZM1102.13 729.694C1101.85 730.338 1101.57 730.663 1101.37 730.82C1101.21 730.953 1101.03 731.018 1100.78 731.018V735.018C1101.91 735.018 1102.97 734.662 1103.86 733.951C1104.72 733.266 1105.34 732.327 1105.8 731.285L1102.13 729.694ZM1112.11 703.174C1111.36 703.525 1110.85 703.521 1110.47 703.405L1109.29 707.227C1110.82 707.697 1112.36 707.473 1113.8 706.798L1112.11 703.174ZM1110.6 703.45C1110.19 703.292 1109.76 702.951 1109.35 702.178L1105.81 704.057C1106.57 705.482 1107.67 706.606 1109.16 707.182L1110.6 703.45ZM1109.38 702.249L1084.92 651.462L1081.32 653.198L1105.78 703.985L1109.38 702.249ZM1084.93 651.486C1084.6 650.778 1084.63 650.321 1084.77 649.968L1081.03 648.535C1080.44 650.088 1080.61 651.683 1081.31 653.174L1084.93 651.486ZM1084.77 649.968C1084.92 649.587 1085.22 649.202 1085.94 648.865L1084.25 645.242C1082.78 645.93 1081.62 647.011 1081.03 648.535L1084.77 649.968ZM1085.94 648.865C1086.65 648.535 1087.1 648.565 1087.45 648.7L1088.89 644.967C1087.33 644.368 1085.74 644.545 1084.25 645.242L1085.94 648.865ZM1087.58 648.745C1087.87 648.835 1088.22 649.058 1088.55 649.766L1092.17 648.078C1091.48 646.587 1090.36 645.418 1088.76 644.922L1087.58 648.745ZM1088.55 649.777L1112.57 700.564L1116.19 698.854L1092.17 648.067L1088.55 649.777ZM1112.61 700.649C1113.04 701.442 1113.06 701.973 1112.98 702.339L1116.88 703.236C1117.23 701.696 1116.89 700.175 1116.15 698.77L1112.61 700.649ZM1112.98 702.339C1112.93 702.55 1112.79 702.853 1112.11 703.174L1113.8 706.798C1115.31 706.093 1116.49 704.93 1116.88 703.236L1112.98 702.339Z" fill="#0078F0" mask="url(#path-2-outside-1)"/>
</svg>
